
<svg xmlns="http://www.w3.org/2000/svg" version="1.1" xmlns:xlink="http://www.w3.org/1999/xlink" preserveAspectRatio="none" x="0px" y="0px" width="221px" height="29px" viewBox="0 0 221 29">
<defs>
<g id="Layer0_0_MEMBER_0_FILL">
<path fill="#FFFFFF" stroke="none" d="
M 344.7 306.95
L 344.7 308.15 342.65 308.15 342.65 309.2 344.7 309.2 344.7 310.55 342.8 310.55 342.8 311.6 346.5 311.6 345.45 313.4 343.75 311.85 343.6 311.75 343.4 311.75 343.15 311.85 342.9 312 342.8 312.35 342.8 312.7 342.9 312.8 344.7 314 343.6 314.6 342.2 315.1 342.8 316.15 344.45 315.55 345.05 315.2 345.65 314.6 345.8 314.85 346.25 315.2 346.5 315.55 346.6 315.8 346.6 316.15 346.75 316.15 347.1 315.9 347.6 316.25 348.2 316.5 348.45 316.4 347.85 315.55 348.2 315.3 348.8 316.15 348.9 316.05 348.9 315.2 348.8 314.95 348.55 314.85 348.3 314.6 348.05 314.5 347.45 314.5 346.75 314.35 346.25 314.15 346.6 313.5 347 313.05 347.7 311.6 347.85 311.4 347.85 310.55 345.9 310.55 345.9 309.2 348.2 309.2 348.2 308.15 345.9 308.15 345.9 306.95 344.7 306.95 Z"/>
</g>

<g id="Layer0_0_MEMBER_1_FILL">
<path fill="#FFFFFF" stroke="none" d="
M 340.25 308.5
L 338.95 308.5 338.95 309.7 340.25 309.7 340.25 311.6 338.85 312 339.2 313.15 340.25 312.8 340.25 314.35 340.15 314.85 340.15 314.95 339.45 314.95 339.05 314.85 339.2 316.05 339.55 316.15 340.75 316.15 341 316.05 341.1 315.8 341.25 315.7 341.35 315.3 341.35 312.35 342.55 311.85 342.3 310.9 341.35 311.15 341.35 309.7 342.45 309.7 342.45 308.5 341.35 308.5 341.35 306.95 340.25 306.95 340.25 308.5 Z"/>
</g>

<g id="Layer0_0_MEMBER_2_FILL">
<path fill="#FFFFFF" stroke="none" d="
M 343.15 296.9
L 342.45 296.9 342.45 297.15 341.85 297.15 341.7 297 341.45 296.9 341.35 296.75 340.4 296.75 339.9 296.9 339.3 297 338.85 297.5 338.35 297.85 338 298.45 338.1 298.55 338.1 298.45 338.25 298.45 339.45 297.95 339.9 297.85 340.15 297.95 340.25 298.3 340.25 299.3 338.45 299.3 338.45 300.5 340.15 300.5 339.9 300.95 339.55 301.8 338.35 303.5 339.2 304.2 340.15 302.9 340.15 302.75 340.25 303.6 340.15 305.85 340.25 306.1 341.1 306.1 341.25 306 341.25 305.4 341.1 304.45 341.1 303.6 341.25 302.15 342.2 303.25 342.8 302.25 341.25 300.7 341.25 300.6 341.1 300.5 342.9 300.5 342.9 299.3 341.1 299.3 341.1 298.45 341.25 298.3 341.35 297.95 341.7 297.95 342.05 297.85 342.3 297.95 342.55 298.2 342.55 298.3 343 298.3 343.15 298.2 343.25 298.1 343.25 297 343.15 296.9 Z"/>
</g>

<g id="Layer0_0_MEMBER_3_FILL">
<path fill="#FFFFFF" stroke="none" d="
M 344.25 298.9
L 344.85 299.65 345.8 298.7 345.05 297.95 344.35 297.5 343.5 298.3 344.25 298.9 Z"/>
</g>

<g id="Layer0_0_MEMBER_4_FILL">
<path fill="#FFFFFF" stroke="none" d="
M 347 296.75
L 345.9 296.75 345.9 302.5 342.55 303.1 342.8 304.3 345.9 303.7 345.9 306.1 347 306.1 347 303.6 347.85 303.5 347.85 302.25 347 302.4 347 296.75 Z"/>
</g>

<g id="Layer0_0_MEMBER_5_FILL">
<path fill="#FFFFFF" stroke="none" d="
M 345.3 301.05
L 343.85 299.9 343 300.7 344.45 302.15 345.3 301.05 Z"/>
</g>

<g id="Layer0_0_MEMBER_6_FILL">
<path fill="#FFFFFF" stroke="none" d="
M 343.75 293.75
L 343.25 292.45 341.6 291.15 341 291 288 291 287.25 291.15 285.6 292.45 285.1 293.75 285 294.5 285 317 285.1 317.7 285.6 318.9 286.05 319.65 287.25 320.35 288 320.45 288.7 320.7 340.15 320.7 341 320.45 341.6 320.35 342.8 319.65 343.25 318.9 343.75 317.7 343.85 317 343.85 316.65 342.8 316.65 342.8 317 342.65 317.5 342.45 317.85 342.3 318.3 342.05 318.8 341.6 319.15 340.6 319.4 288.1 319.4 287.25 319.15 286.9 318.8 286.55 318.3 286.4 317.85 286.2 317.5 286.05 317 286.05 294.5 286.2 294 286.55 293.15 287.25 292.45 287.6 292.25 288.1 292.1 340.6 292.1 341.25 292.25 341.6 292.45 342.05 292.8 342.3 293.15 342.65 294 342.8 294.5 342.8 295.45 343.85 295.45 343.85 294.5 343.75 293.75 Z"/>
</g>

<g id="Layer0_0_MEMBER_7_FILL">
<path fill="#FFFFFF" stroke="none" d="
M 334.15 299.05
L 334.15 297.25 326.6 297.25 326.6 299.05 329 299.05 329 305.5 326 305.5 326 306.95 329 306.95 329 314.85 331.4 314.85 331.4 306.95 334.5 306.95 334.5 305.5 331.4 305.5 331.4 299.05 334.15 299.05 Z"/>
</g>

<g id="Layer0_0_MEMBER_8_FILL">
<path fill="#FFFFFF" stroke="none" d="
M 325.4 299.05
L 325.4 297.25 321.1 297.25 321.1 296.4 318.7 296.4 318.7 297.25 314.1 297.25 314.1 299.05 318.7 299.05 318.7 300.6 315.3 300.6 314.7 301.2 314.7 310.05 318.7 310.05 318.7 311.25 314.1 311.25 314.1 313.05 318.7 313.05 318.7 314.85 321.1 314.85 321.1 313.05 325.4 313.05 325.4 311.25 321.1 311.25 321.1 310.05 324.8 310.05 324.8 302.15 324.45 301.2 324.1 300.6 321.1 300.6 321.1 299.05 325.4 299.05
M 321.1 302.15
L 322.65 302.15 322.65 304.2 321.1 304.2 321.1 302.15
M 317.1 302.15
L 318.7 302.15 318.7 304.2 317.1 304.2 317.1 302.15
M 317.1 308.15
L 317.1 306.1 318.7 306.1 318.7 308.15 317.1 308.15
M 321.1 308.15
L 321.1 306.1 322.65 306.1 322.65 308.15 321.1 308.15 Z"/>
</g>

<g id="Layer0_0_MEMBER_9_FILL">
<path fill="#FFFFFF" stroke="none" d="
M 308.5 308.5
L 304.15 308.5 303.55 308.75 303.55 310.3 304.5 312.45 307.5 314.6 308.75 314.85 308.75 312.7 307.9 312.45 306.95 311.5 306.35 310.65 306.1 310.05 308.5 310.05 308.5 308.5 Z"/>
</g>

<g id="Layer0_0_MEMBER_10_FILL">
<path fill="#FFFFFF" stroke="none" d="
M 301.2 296.4
L 298.4 296.4 298.4 297.6 292.05 297.6 291.2 297.85 290.6 298.45 290.25 299.05 290.25 308.15 289.9 310.9 288.7 313.05 288.7 314.85 290.25 314.25 291.2 313.3 292.4 310.65 293 307.9 293 304.9 299.6 304.9 299.6 306.1 293.85 306.1 293.85 307.55 299.6 307.55 299.6 313.65 297.8 313.65 297.8 314.85 300.6 314.85 301.8 314.6 302.15 314.25 302.4 313.9 302.75 312.45 302.75 307.55 308.75 307.55 308.75 304.9 310.05 304.9 310.05 303.35 308.75 303.35 308.75 301.55 308.15 300.95 307.3 300.6 302.75 300.6 302.75 299.4 309.35 299.4 309.35 297.6 301.2 297.6 301.2 296.4
M 306.35 304.9
L 306.35 306.1 302.75 306.1 302.75 304.9 306.35 304.9
M 306.35 302.15
L 306.35 303.35 302.75 303.35 302.75 302.15 306.35 302.15
M 299.6 299.4
L 299.6 300.6 293.85 300.6 293.85 302.15 299.6 302.15 299.6 303.35 293 303.35 293 299.4 299.6 299.4 Z"/>
</g>

<g id="Layer0_0_MEMBER_11_FILL">
<path fill="#FFFFFF" stroke="none" d="
M 298.15 308.5
L 293.85 308.5 293.85 310.05 296.35 310.05 295.4 311.5 294.45 312.45 293.6 312.7 293.6 314.85 294.8 314.6 296.35 313.65 297.8 312.45 298.15 311.25 298.75 310.3 298.75 309.45 298.4 308.75 298.15 308.5 Z"/>
</g>

<g id="Layer0_0_MEMBER_12_FILL">
<path fill="#FFFFFF" stroke="none" d="
M 365.95 300.35
L 365 299.75 362.7 299.3 356.45 299.4 355.25 299.75 354.3 300.35 353.7 300.95 353.25 301.9 353 303 353 305.4 353.25 307.2 353.6 307.8 353.85 308.4 354.55 308.6 355.15 309.1 361 309.95 362.1 309.95 362.7 310.15 362.95 310.3 363.2 310.65 363.2 311.4 362.7 312.8 362.35 312.9 362.1 313.15 358.5 313.15 357.55 312.7 357.45 312.35 357.3 311.4 357.3 311.15 352.75 311.15 353 312.45 353 313.4 353.25 314.25 353.85 315.45 354.3 315.9 354.9 316.15 355.75 316.4 360.55 316.75 364.35 316.5 365.6 316.05 366.55 315.45 367 314.85 367.5 313.9 367.75 311.15 367.5 308.6 367.15 308 366.75 307.55 365.95 306.95 365.1 306.7 364.5 306.45 359.95 306.1 358.5 305.85 357.9 305.65 357.55 305.15 357.55 304.55 357.9 303.25 358 303.1 359 302.9 361.6 302.9 362.35 303.1 362.7 303.6 362.8 304.55 362.8 304.8 367.15 304.8 367.25 304.05 367 302.05 366.2 300.7 365.95 300.35 Z"/>
</g>

<g id="Layer0_0_MEMBER_13_FILL">
<path fill="#FFFFFF" stroke="none" d="
M 377.6 306.8
L 376.85 306.35 373.6 305.85 371 306.25 370 306.7 369.4 307.2 368.95 307.9 368.8 308.6 368.45 311.4 368.8 314.25 369.2 315.1 369.75 315.7 370.5 316.15 371.45 316.5 374.2 316.75 376.85 316.5 377.6 316.05 378.2 315.45 378.4 314.95 378.55 314.35 378.65 312.35 375.3 312.35 375.3 313.3 374.95 313.9 373.75 314.25 372.75 314 372.55 313.9 372.4 313.75 372.2 313.3 372.05 312.8 372.05 309.7 372.2 309.2 372.55 308.85 372.75 308.6 373.75 308.5 374.6 308.6 374.95 308.85 375.2 309.2 375.2 310.05 378.55 310.05 378.55 309 378.4 308 378.05 307.3 377.6 306.8 Z"/>
</g>

<g id="Layer0_0_MEMBER_14_FILL">
<path fill="#FFFFFF" stroke="none" d="
M 386.55 306.1
L 385.5 305.85 383.95 306.35 383.35 306.95 382.85 307.8 382.95 306.1 379.5 306.1 379.5 316.65 382.95 316.65 382.95 309.45 383.1 309.1 383.8 308.6 384.65 308.6 385 309 385.1 309.45 385.1 310.65 388.25 310.65 388.25 308.5 388.1 307.8 387.75 306.95 387.15 306.35 386.55 306.1 Z"/>
</g>

<g id="Layer0_0_MEMBER_15_FILL">
<path fill="#FFFFFF" stroke="none" d="
M 399.15 308.65
L 398.7 307.3 398.2 306.85 397.95 306.5 397.35 306.35 394.1 305.85 391.25 306.2 390.4 306.45 389.55 307.4 389.45 307.9 389.35 309.25 392.8 309.25 393.15 308.4 393.65 308.05 394.25 308.05 394.95 308.15 395.45 308.4 395.8 308.85 395.8 311.6 395.35 310.8 394.85 310.55 393.9 310.2 391.75 310.2 391 310.3 389.8 311 389.1 311.85 388.95 312.7 388.95 314.4 389.1 315 389.35 315.6 390.15 316.4 390.9 316.65 391.6 316.75 393.9 316.65 394.85 316.4 395.2 316.2 395.45 315.95 395.8 315 395.9 315 395.8 316.65 399.3 316.65 399.3 309.7 399.15 308.65
M 393.3 312.3
L 394.85 312.3 395.45 312.45 395.8 312.8 395.8 313.9 395.45 314.35 394.95 314.5 393.3 314.5 392.7 314.35 392.35 313.4 392.7 312.45 393.3 312.3 Z"/>
</g>

<g id="Layer0_0_MEMBER_16_FILL">
<path fill="#FFFFFF" stroke="none" d="
M 400.1 308.5
L 401.35 308.5 401.35 313.5 401.55 315.55 402.85 316.5 405.05 316.75 407.8 316.5 408.25 316.15 408.5 315.9 409 315.1 409.35 312.8 409.35 312.35 406.6 312.35 406.35 313.3 406.35 313.9 406.1 314.25 405.15 314.25 404.8 314 404.8 313.5 404.7 312.8 404.7 308.5 408.85 308.5 408.85 306.1 404.7 306.1 404.7 303.95 401.35 303.95 401.35 306.1 400.1 306.1 400.1 308.5 Z"/>
</g>

<g id="Layer0_0_MEMBER_17_FILL">
<path fill="#FFFFFF" stroke="none" d="
M 416.55 308.85
L 416.7 309.2 416.8 310.05 420.05 310.05 420.05 309 419.9 308 419.7 307.3 419.2 306.8 418.6 306.35 415.1 305.85 412.6 306.25 411.75 306.7 411.15 307.2 410.7 307.9 410.45 308.6 410.1 311.4 410.45 314.25 410.7 315.1 411.25 315.7 412.95 316.5 415.95 316.75 418.35 316.5 419.2 316.05 419.8 315.45 420.05 314.35 420.25 312.35 416.8 312.35 416.8 313.3 416.7 313.9 415.35 314.25 414.05 313.9 413.9 313.75 413.7 312.8 413.7 309.7 413.8 309.2 413.9 309 414.05 308.85 414.4 308.6 415.5 308.5 416.1 308.6 416.55 308.85 Z"/>
</g>

<g id="Layer0_0_MEMBER_18_FILL">
<path fill="#FFFFFF" stroke="none" d="
M 429.6 304.55
L 428.65 304.3 426.85 304.65 426.4 305 425.9 305.25 424.95 306.95 424.95 299.4 421 299.4 421 316.65 424.95 316.65 424.95 309.7 425.2 308.6 425.3 308.4 425.45 308 426.25 307.55 428.05 307.55 428.2 307.9 428.55 308 428.65 308.6 428.65 316.65 432.75 316.65 432.75 308 432.5 307.2 432.4 306.45 432.15 305.85 431.65 305.25 431.2 305 430.35 304.65 429.6 304.55 Z"/>
</g>

<g id="Layer0_0_MEMBER_19_FILL">
<path fill="#FFFFFF" stroke="none" d="
M 478.1 305
L 477.6 304.65 460.35 304.65 459.75 304.8 459.25 305.15 459 306.25 459 307.8 459.25 308.85 459.75 309 460.6 309.1 461.2 309.1 461.65 308.85 461.9 308 461.9 306.8 462.15 306.7 462.25 306.45 475.2 306.45 475.45 306.7 475.45 308 475.7 308.5 475.8 308.85 476.3 309 477 309.1 477.6 309 478.1 308.85 478.45 308.4 478.45 305.65 478.1 305 Z"/>
</g>

<g id="Layer0_0_MEMBER_20_FILL">
<path fill="#FFFFFF" stroke="none" d="
M 474 307.4
L 473.15 307.3 463.6 307.3 463.2 307.4 462.85 307.55 462.75 307.9 462.5 308.4 462.75 308.85 462.85 309.1 463.2 309.45 471.5 309.45 471.6 309.55 471.85 309.55 471.6 309.95 471.35 310.15 470.3 310.75 470.05 310.55 469.95 310.3 469.7 310.05 468.35 310.05 467.9 310.15 467.5 310.75 459.6 310.75 459 311.4 459 312.45 459.25 312.8 459.6 313.15 468.1 313.15 468.25 314 468.1 314.5 467.75 314.6 466.55 314.35 465.5 314.25 464.9 314.35 464.55 314.5 464.4 314.85 464.3 315.45 464.55 316.15 464.9 316.4 465.35 316.5 468.75 317 469.7 316.75 470.4 316.4 471 315.45 471.1 314.95 471 313.15 477.85 313.15 478.35 312.8 478.45 312.35 478.45 311.4 478.35 311.15 477.85 310.75 473.75 310.75 474.6 309.95 474.85 309.2 475.1 308.85 474.85 308.15 474.6 307.8 474 307.4 Z"/>
</g>

<g id="Layer0_0_MEMBER_21_FILL">
<path fill="#FFFFFF" stroke="none" d="
M 497.5 300.85
L 497.05 301.05 496.55 302.4 495.95 303.5 495.35 302.05 494.75 301.3 494.25 300.95 493.8 300.95 493.55 301.05 493.2 301.55 493.1 301.9 493.3 302.4 494.15 303.5 493.3 303.5 493.2 303.6 492.95 303.95 492.95 305 493.2 305.25 493.55 305.4 493.8 305.65 494.75 305.65 494.75 307.3 493.3 307.3 493.2 307.4 492.95 307.8 492.95 308.85 493.3 309.2 493.7 309.45 493.7 312.8 494.05 313.3 494.4 313.4 495.1 313.5 497.85 313.5 498.35 313.4 498.6 313.3 498.7 312.9 498.7 312.1 498.6 311.6 498.35 311.4 496.2 311.4 495.95 311.25 495.85 311.15 495.85 309.45 498.35 309.45 498.7 309.2 499.1 309 499.2 308.85 499.2 307.8 499.1 307.4 498.6 307.3 497.05 307.3 497.05 305.65 498.1 305.65 499.1 305.15 499.2 304.8 499.2 304.3 499.1 303.95 498.95 303.6 498.6 303.5 498.1 303.5 498.6 302.4 498.95 301.8 498.7 301.3 498.5 301.05 498.1 300.85 497.5 300.85 Z"/>
</g>

<g id="Layer0_0_MEMBER_22_FILL">
<path fill="#FFFFFF" stroke="none" d="
M 484.95 297.6
L 483.95 299.75 483.5 299.65 483.25 299.4 482.75 299.65 482.4 299.75 482.3 300.25 482.15 300.5 482.4 301.3 482.75 301.55 485.05 303.7 485.05 303.95 483.75 305.85 482.9 305.85 482.65 306.25 482.4 306.45 482.3 306.95 482.4 307.55 482.65 307.9 483.75 308.15 485.05 308 485.05 316.05 485.4 316.5 485.65 316.65 486.25 316.75 487.2 316.5 487.3 316.05 487.55 315.55 487.55 307.55 488.25 307.4 488.4 308.15 488.4 308.5 488.65 308.85 488.85 309 489.5 309 489.85 308.85 489.95 308.5 490.1 308.15 489.95 306.1 489.5 304.2 489.25 303.7 488.65 303.6 488.25 303.7 487.9 303.95 487.8 304.05 487.8 304.8 487.9 305.65 486.5 305.75 487.55 304.3 489 301.8 489.5 300.7 489.7 299.9 489.5 299.4 489.25 299.15 488.75 298.9 487.9 298.9 487.3 299.75 486.85 300.85 486.25 301.9 485.4 300.95 486.25 299.9 486.85 298.7 487.1 298.3 487.1 297.6 486.25 297 485.75 297 485.4 297.15 484.95 297.6 Z"/>
</g>

<g id="Layer0_0_MEMBER_23_FILL">
<path fill="#FFFFFF" stroke="none" d="
M 501.35 298.2
L 500.85 297.85 491.05 297.85 490.55 298.2 490.3 299.4 490.3 312.9 489.25 309.2 488.4 309.2 487.9 309.45 487.7 310.05 487.8 310.65 488.75 314.35 488.85 314.5 489.35 314.6 490.1 314.35 490.3 314 490.3 315.7 490.55 316.5 490.9 316.65 491.4 316.75 491.85 316.65 492.25 316.5 492.5 316.15 492.6 315.7 492.6 300.35 499.55 300.35 499.55 313.9 499.45 314 498.5 314 497.65 314.25 497.4 314.5 497.05 314.6 497.05 315.7 497.65 316.5 498.1 316.65 500.05 316.75 500.75 316.65 501.35 316.4 501.7 315.9 501.7 298.55 501.35 298.2 Z"/>
</g>

<g id="Layer0_0_MEMBER_24_FILL">
<path fill="#FFFFFF" stroke="none" d="
M 483.75 309.2
L 483.35 309.2 483 309.45 482.9 309.7 482.9 310.05 481.95 314.35 482.15 314.85 482.3 315.1 482.75 315.3 483.25 315.3 483.75 315.1 483.85 314.85 484.7 310.15 484.55 309.7 484.45 309.55 483.95 309.45 483.75 309.2 Z"/>
</g>

<g id="Layer0_0_MEMBER_25_FILL">
<path fill="#FFFFFF" stroke="none" d="
M 475.1 298.8
L 474.6 298.7 472.1 298.7 471.85 298.8 471.6 299.3 471.85 299.65 472.1 299.75 474.6 299.75 475.1 299.65 475.2 299.3 475.1 298.8 Z"/>
</g>

<g id="Layer0_0_MEMBER_26_FILL">
<path fill="#FFFFFF" stroke="none" d="
M 471.85 301.3
L 472.1 301.45 474.6 301.45 475.1 301.3 475.2 300.85 475.1 300.5 474.6 300.35 472.1 300.35 471.85 300.5 471.6 300.85 471.85 301.3 Z"/>
</g>

<g id="Layer0_0_MEMBER_27_FILL">
<path fill="#FFFFFF" stroke="none" d="
M 471.85 302.9
L 472.1 303 474.6 303 475.1 302.9 475.2 302.5 475.1 302.05 474.6 301.9 472.1 301.9 471.85 302.05 471.6 302.5 471.85 302.9 Z"/>
</g>

<g id="Layer0_0_MEMBER_28_FILL">
<path fill="#FFFFFF" stroke="none" d="
M 465.6 298.8
L 465.35 298.7 462.85 298.7 462.5 298.8 462.35 299.3 462.5 299.65 462.85 299.75 465.35 299.75 465.6 299.65 465.75 299.3 465.6 298.8 Z"/>
</g>

<g id="Layer0_0_MEMBER_29_FILL">
<path fill="#FFFFFF" stroke="none" d="
M 465.6 300.5
L 465.35 300.35 462.85 300.35 462.5 300.5 462.35 300.85 462.5 301.3 462.85 301.45 465.35 301.45 465.6 301.3 465.75 300.85 465.6 300.5 Z"/>
</g>

<g id="Layer0_0_MEMBER_30_FILL">
<path fill="#FFFFFF" stroke="none" d="
M 465.6 302.05
L 465.35 301.9 462.85 301.9 462.5 302.05 462.35 302.5 462.5 302.9 462.85 303 465.35 303 465.6 302.9 465.75 302.5 465.6 302.05 Z"/>
</g>

<g id="Layer0_0_MEMBER_31_FILL">
<path fill="#FFFFFF" stroke="none" d="
M 437.3 299.4
L 437.05 299.65 437.05 300.85 437.3 300.95 437.45 301.05 437.8 300.95 437.8 299.4 437.45 299.3 437.3 299.4 Z"/>
</g>

<g id="Layer0_0_MEMBER_32_FILL">
<path fill="#FFFFFF" stroke="none" d="
M 442.7 299.75
L 442.35 299.75 442.25 300 442.25 300.7 442.1 300.95 441.75 301.05 441.15 301.45 439.7 301.45 439.25 301.05 438.85 300.95 438.6 300.7 438.6 299.75 438.15 299.75 438 300 438 300.7 438.4 301.05 438.85 301.55 439.6 301.9 440.55 302.05 441.4 301.9 442.25 301.55 442.7 301.05 442.85 300.95 442.85 300 442.7 299.75 Z"/>
</g>

<g id="Layer0_0_MEMBER_33_FILL">
<path fill="#FFFFFF" stroke="none" d="
M 440.65 296.05
L 440.3 296.05 436.45 297.85 436.45 298.55 436.7 298.55 440.3 300.35 440.65 300.35 444.4 298.55 444.5 298.2 444.5 298.1 444.4 297.85 444.4 297.75 440.65 296.05
M 443.8 298.2
L 440.55 299.75 437.05 298.2 440.55 296.65 443.8 298.2 Z"/>
</g>

<g id="Layer0_0_MEMBER_34_FILL">
<path fill="#FFFFFF" stroke="none" d="
M 440.8 298.3
L 441 298.2 440.8 297.85 440.05 297.85 440.05 298.3 440.3 298.55 440.65 298.55 440.8 298.3 Z"/>
</g>

<g id="Layer0_0_MEMBER_35_FILL">
<path fill="#FFFFFF" stroke="none" d="
M 455.8 302.4
L 455.8 301.05 455.2 300.5 454.6 300.35 450.75 300.35 451 298.2 450.85 297.7 450.4 297.25 449.9 297.1 448.95 297.1 448.7 297.25 448.35 297.85 447.85 300.25 447.25 301.9 447 303 446.55 302.65 446.05 302.5 445.7 302.5 447 300.35 447.15 299.85 447.25 299.15 447.15 298.65 446.8 298.3 446.4 298.05 445.95 297.85 445.35 298.2 444.25 300.2 442.45 302.5 436.8 302.5 436.2 302.6 435.85 302.85 435.75 303.1 435.6 303.7 435.85 304.65 436.35 304.75 436.8 305 440.2 305 436.2 307.4 435.85 307.55 435.6 307.9 435.6 308.15 435.4 308.5 435.75 309.45 436 309.7 436.45 309.7 437.3 309.55 438.4 309.1 440.2 308 442.8 308 442.8 308.5 442.45 308.6 441.75 309.45 441.6 309.1 441.25 308.95 440.55 308.85 440.05 308.85 439.7 308.95 439.45 309.2 439.2 309.95 439.6 310.55 439.7 310.65 436.8 311 436 311.25 435.85 311.6 435.75 312.1 435.85 312.7 436 312.95 436.35 313.15 436.95 313.3 440.8 312.95 440.65 314 440.55 314.35 438.4 314.25 438 314.35 437.9 314.5 437.8 314.95 437.8 315.45 437.9 316.05 438.4 316.55 441.15 316.75 441.75 316.65 442.2 316.4 442.7 315.95 442.95 315.55 443.2 314.95 443.3 314.35 443.2 312.7 446.2 312.1 446.65 312.1 447 311.75 447.25 311 447.15 310.55 447 310.15 446.2 309.95 443.9 310.15 445.45 308.5 445.7 307.3 446.2 307.55 446.8 307.75 447.25 307.75 448.95 311.6 447.5 313.3 445.6 314.85 445.35 315.1 445.35 316.05 445.6 316.55 446.65 316.75 447.5 316.65 448.2 316.4 449.4 315.35 450.5 314 453 316.55 454.1 316.75 454.7 316.65 455.3 316.4 455.4 315.95 455.65 315.6 455.2 314.6 453.6 313.2 452.2 311.6 453 310.3 454.1 306.8 454.6 303.1 455.2 303.1 455.65 302.9 455.8 302.4
M 449.2 305.6
L 448.95 305.25 449.9 303.1 451.8 303.1 451.8 304.8 450.75 309 449.2 305.6
M 445.95 305.05
L 445.6 305.4 445.45 305.85 445.45 306.45 445 306.25 444 306.1 442.7 306.1 443.3 305.4 443.8 305.05 445.95 305.05 Z"/>
</g>

<g id="Layer0_0_MEMBER_36_FILL">
<path fill="#FFFFFF" stroke="none" d="
M 466.45 296.55
L 463.6 296.15 461.05 296.65 460.7 296.75 460.35 297 460.2 297.25 460.2 303.6 460.35 303.95 460.7 304.05 461.2 303.95 461.3 303.6 461.3 297.6 463.8 297.25 464.9 297.25 466.1 297.6 466.45 297.6 466.7 297.15 466.7 296.75 466.45 296.55 Z"/>
</g>

<g id="Layer0_0_MEMBER_37_FILL">
<path fill="#FFFFFF" stroke="none" d="
M 476.4 296.65
L 473.75 296.15 471.1 296.55 470.9 296.75 470.75 297.15 471 297.6 471.35 297.6 472.55 297.25 473.75 297.25 476.15 297.6 476.3 297.75 476.3 303.6 476.4 303.95 476.75 304.05 477 303.95 477.25 303.6 477.25 297.25 476.75 296.75 476.4 296.65 Z"/>
</g>

<g id="Layer0_0_MEMBER_38_FILL">
<path fill="#FFFFFF" stroke="none" d="
M 470.05 298.2
L 469.95 297.75 469.45 297.6 469.2 297.75 468.75 298.2 468.35 297.75 467.9 297.6 467.65 297.75 467.5 298.2 467.65 298.55 467.9 298.9 467.65 299.3 467.5 299.75 467.65 300 467.9 300.25 468.75 299.75 469.2 300 469.45 300.25 469.95 300 470.05 299.75 469.95 299.3 469.45 298.9 469.95 298.55 470.05 298.2 Z"/>
</g>

<g id="Layer0_0_MEMBER_39_FILL">
<path fill="#FFFFFF" stroke="none" d="
M 467.5 301.3
L 467.9 302.05 467.65 302.4 467.5 302.9 467.65 303.1 467.9 303.25 468.35 303.1 468.75 302.9 469.2 303.1 469.45 303.25 469.95 303.1 470.05 302.9 469.95 302.4 469.45 302.05 469.95 301.55 470.05 301.3 469.95 300.85 469.45 300.7 469.2 300.85 468.75 301.3 468.35 300.85 467.9 300.7 467.65 300.85 467.5 301.3 Z"/>
</g>

<g id="Layer0_0_MEMBER_40_FILL">
<path fill="#FFFFFF" stroke="none" d="
M 500.85 293.55
L 500.5 293.75 500.25 294 500.5 294.5 500.85 294.5 501.7 294.6 503.25 295.35 503.85 295.7 504.35 296.4 504.6 297.15 504.95 297.85 504.95 298.7 505.1 299.15 505.9 299.15 506.05 298.7 505.9 297.75 505.55 296.65 504.5 295.1 503.75 294.5 502.8 294 500.85 293.55 Z"/>
</g>

<g id="Layer0_0_MEMBER_41_FILL">
<path fill="#FFFFFF" stroke="none" d="
M 500.85 295.45
L 500.5 295.55 500.25 295.95 500.5 296.4 500.85 296.4 501.7 296.65 502.45 297.15 502.9 297.75 503.05 298.2 503.05 298.7 503.25 299.15 504 299.15 504.1 298.7 503.85 297.5 503.5 296.75 503.25 296.4 502.2 295.7 501.6 295.45 500.85 295.45 Z"/>
</g>
</defs>

<g transform="matrix( 1, 0, 0, 1, -285,-291) ">
<use xlink:href="#Layer0_0_MEMBER_0_FILL"/>
</g>

<g transform="matrix( 1, 0, 0, 1, -285,-291) ">
<use xlink:href="#Layer0_0_MEMBER_1_FILL"/>
</g>

<g transform="matrix( 1, 0, 0, 1, -285,-291) ">
<use xlink:href="#Layer0_0_MEMBER_2_FILL"/>
</g>

<g transform="matrix( 1, 0, 0, 1, -285,-291) ">
<use xlink:href="#Layer0_0_MEMBER_3_FILL"/>
</g>

<g transform="matrix( 1, 0, 0, 1, -285,-291) ">
<use xlink:href="#Layer0_0_MEMBER_4_FILL"/>
</g>

<g transform="matrix( 1, 0, 0, 1, -285,-291) ">
<use xlink:href="#Layer0_0_MEMBER_5_FILL"/>
</g>

<g transform="matrix( 1, 0, 0, 1, -285,-291) ">
<use xlink:href="#Layer0_0_MEMBER_6_FILL"/>
</g>

<g transform="matrix( 1, 0, 0, 1, -285,-291) ">
<use xlink:href="#Layer0_0_MEMBER_7_FILL"/>
</g>

<g transform="matrix( 1, 0, 0, 1, -285,-291) ">
<use xlink:href="#Layer0_0_MEMBER_8_FILL"/>
</g>

<g transform="matrix( 1, 0, 0, 1, -285,-291) ">
<use xlink:href="#Layer0_0_MEMBER_9_FILL"/>
</g>

<g transform="matrix( 1, 0, 0, 1, -285,-291) ">
<use xlink:href="#Layer0_0_MEMBER_10_FILL"/>
</g>

<g transform="matrix( 1, 0, 0, 1, -285,-291) ">
<use xlink:href="#Layer0_0_MEMBER_11_FILL"/>
</g>

<g transform="matrix( 1, 0, 0, 1, -285,-291) ">
<use xlink:href="#Layer0_0_MEMBER_12_FILL"/>
</g>

<g transform="matrix( 1, 0, 0, 1, -285,-291) ">
<use xlink:href="#Layer0_0_MEMBER_13_FILL"/>
</g>

<g transform="matrix( 1, 0, 0, 1, -285,-291) ">
<use xlink:href="#Layer0_0_MEMBER_14_FILL"/>
</g>

<g transform="matrix( 1, 0, 0, 1, -285,-291) ">
<use xlink:href="#Layer0_0_MEMBER_15_FILL"/>
</g>

<g transform="matrix( 1, 0, 0, 1, -285,-291) ">
<use xlink:href="#Layer0_0_MEMBER_16_FILL"/>
</g>

<g transform="matrix( 1, 0, 0, 1, -285,-291) ">
<use xlink:href="#Layer0_0_MEMBER_17_FILL"/>
</g>

<g transform="matrix( 1, 0, 0, 1, -285,-291) ">
<use xlink:href="#Layer0_0_MEMBER_18_FILL"/>
</g>

<g transform="matrix( 1, 0, 0, 1, -285,-291) ">
<use xlink:href="#Layer0_0_MEMBER_19_FILL"/>
</g>

<g transform="matrix( 1, 0, 0, 1, -285,-291) ">
<use xlink:href="#Layer0_0_MEMBER_20_FILL"/>
</g>

<g transform="matrix( 1, 0, 0, 1, -285,-291) ">
<use xlink:href="#Layer0_0_MEMBER_21_FILL"/>
</g>

<g transform="matrix( 1, 0, 0, 1, -285,-291) ">
<use xlink:href="#Layer0_0_MEMBER_22_FILL"/>
</g>

<g transform="matrix( 1, 0, 0, 1, -285,-291) ">
<use xlink:href="#Layer0_0_MEMBER_23_FILL"/>
</g>

<g transform="matrix( 1, 0, 0, 1, -285,-291) ">
<use xlink:href="#Layer0_0_MEMBER_24_FILL"/>
</g>

<g transform="matrix( 1, 0, 0, 1, -285,-291) ">
<use xlink:href="#Layer0_0_MEMBER_25_FILL"/>
</g>

<g transform="matrix( 1, 0, 0, 1, -285,-291) ">
<use xlink:href="#Layer0_0_MEMBER_26_FILL"/>
</g>

<g transform="matrix( 1, 0, 0, 1, -285,-291) ">
<use xlink:href="#Layer0_0_MEMBER_27_FILL"/>
</g>

<g transform="matrix( 1, 0, 0, 1, -285,-291) ">
<use xlink:href="#Layer0_0_MEMBER_28_FILL"/>
</g>

<g transform="matrix( 1, 0, 0, 1, -285,-291) ">
<use xlink:href="#Layer0_0_MEMBER_29_FILL"/>
</g>

<g transform="matrix( 1, 0, 0, 1, -285,-291) ">
<use xlink:href="#Layer0_0_MEMBER_30_FILL"/>
</g>

<g transform="matrix( 1, 0, 0, 1, -285,-291) ">
<use xlink:href="#Layer0_0_MEMBER_31_FILL"/>
</g>

<g transform="matrix( 1, 0, 0, 1, -285,-291) ">
<use xlink:href="#Layer0_0_MEMBER_32_FILL"/>
</g>

<g transform="matrix( 1, 0, 0, 1, -285,-291) ">
<use xlink:href="#Layer0_0_MEMBER_33_FILL"/>
</g>

<g transform="matrix( 1, 0, 0, 1, -285,-291) ">
<use xlink:href="#Layer0_0_MEMBER_34_FILL"/>
</g>

<g transform="matrix( 1, 0, 0, 1, -285,-291) ">
<use xlink:href="#Layer0_0_MEMBER_35_FILL"/>
</g>

<g transform="matrix( 1, 0, 0, 1, -285,-291) ">
<use xlink:href="#Layer0_0_MEMBER_36_FILL"/>
</g>

<g transform="matrix( 1, 0, 0, 1, -285,-291) ">
<use xlink:href="#Layer0_0_MEMBER_37_FILL"/>
</g>

<g transform="matrix( 1, 0, 0, 1, -285,-291) ">
<use xlink:href="#Layer0_0_MEMBER_38_FILL"/>
</g>

<g transform="matrix( 1, 0, 0, 1, -285,-291) ">
<use xlink:href="#Layer0_0_MEMBER_39_FILL"/>
</g>

<g transform="matrix( 1, 0, 0, 1, -285,-291) ">
<use xlink:href="#Layer0_0_MEMBER_40_FILL"/>
</g>

<g transform="matrix( 1, 0, 0, 1, -285,-291) ">
<use xlink:href="#Layer0_0_MEMBER_41_FILL"/>
</g>
</svg>
