<svg version="1.1" id="圖層_1" xmlns="http://www.w3.org/2000/svg" xmlns:xlink="http://www.w3.org/1999/xlink" x="0px" y="0px"
	 viewBox="0 0 792 612" style="enable-background:new 0 0 792 612;" xml:space="preserve">
<style type="text/css">
	.st0{fill-rule:evenodd;clip-rule:evenodd;fill:#FFFFFF;}
</style>
<g>
	<polygon class="st0" points="342.81,316.14 342.81,316.14 343.65,315.9 344.49,315.54 345.09,315.18 345.69,314.58 345.69,314.58 
		345.81,314.82 345.81,314.82 346.29,315.18 346.53,315.54 346.65,315.78 346.65,316.02 346.65,316.02 346.65,316.14 346.77,316.14 
		347.13,315.9 347.13,315.9 347.61,316.25 347.97,316.37 348.21,316.49 348.45,316.37 348.45,316.37 348.45,316.37 348.45,316.37 
		347.85,315.54 348.21,315.3 348.81,316.14 348.81,316.14 348.81,316.25 348.81,316.14 348.81,316.14 348.93,316.02 348.93,315.66 
		348.93,315.42 348.93,315.18 348.81,314.94 348.57,314.82 348.57,314.82 348.33,314.58 348.09,314.46 347.49,314.46 347.49,314.46 
		346.77,314.34 346.53,314.22 346.29,314.1 346.29,314.1 346.29,314.1 346.29,314.1 346.65,313.5 347.01,313.02 347.49,312.19 
		347.73,311.59 347.85,311.35 347.85,310.51 345.93,310.51 345.93,309.19 348.21,309.19 348.21,308.12 345.93,308.12 345.93,306.92 
		344.73,306.92 344.73,308.12 342.69,308.12 342.69,309.19 344.73,309.19 344.73,310.51 342.81,310.51 342.81,311.59 346.53,311.59 
		346.53,311.59 346.05,312.54 345.81,312.9 345.45,313.38 345.45,313.38 343.77,311.83 343.77,311.83 343.65,311.71 343.41,311.71 
		343.17,311.83 342.93,311.95 342.93,311.95 342.81,312.31 342.81,312.54 342.81,312.66 342.93,312.78 342.93,312.78 344.73,313.98 
		344.73,313.98 344.13,314.34 343.65,314.58 342.93,314.82 342.21,315.06 342.81,316.14 	"/>
	<polygon class="st0" points="338.85,311.95 339.21,313.14 339.21,313.14 340.29,312.78 340.29,314.34 340.29,314.34 340.17,314.82 
		340.17,314.82 340.17,314.94 339.93,314.94 339.93,314.94 339.45,314.94 339.09,314.82 339.21,316.02 339.21,316.02 339.57,316.14 
		340.17,316.14 340.17,316.14 340.53,316.14 340.77,316.14 341.01,316.02 341.13,315.78 341.13,315.78 341.25,315.66 341.37,315.3 
		341.37,314.58 341.37,312.31 341.37,312.31 342.57,311.83 342.33,310.87 342.33,310.87 341.37,311.11 341.37,309.67 342.45,309.67 
		342.45,308.47 341.37,308.47 341.37,306.92 340.29,306.92 340.29,308.47 338.97,308.47 338.97,309.67 340.29,309.67 340.29,311.59 
		340.29,311.59 338.85,311.95 338.85,311.95 	"/>
	<polygon class="st0" points="343.05,296.86 343.05,296.86 342.57,296.86 342.57,296.86 342.57,296.86 342.45,296.86 342.45,297.1 
		342.45,297.1 342.09,297.1 341.85,297.1 341.73,296.98 341.73,296.98 341.49,296.86 341.49,296.86 341.37,296.75 341.25,296.75 
		341.25,296.75 340.41,296.75 339.93,296.86 339.33,296.98 339.33,296.98 339.09,297.22 338.85,297.46 338.37,297.82 338.13,298.3 
		338.01,298.42 338.01,298.42 338.13,298.54 338.13,298.42 338.25,298.42 338.25,298.42 339.09,298.06 339.45,297.94 339.93,297.82 
		339.93,297.82 340.17,297.94 340.17,297.94 340.17,297.94 340.29,298.3 340.29,298.3 340.29,298.66 340.29,299.26 338.49,299.26 
		338.49,300.46 340.17,300.46 340.17,300.46 339.93,300.93 339.57,301.77 339.57,301.77 338.97,302.73 338.37,303.45 339.21,304.17 
		339.21,304.17 339.57,303.69 340.17,302.85 340.17,302.85 340.17,302.73 340.17,302.73 340.29,303.57 340.29,303.57 340.17,304.41 
		340.17,305.36 340.17,305.36 340.17,305.84 340.17,305.84 340.17,305.84 340.29,306.08 340.65,306.08 340.65,306.08 341.13,306.08 
		341.25,305.96 341.25,305.96 341.25,305.84 341.25,305.36 341.25,305.36 341.13,304.41 341.13,303.57 341.13,303.57 341.25,302.13 
		341.25,302.13 342.21,303.21 342.81,302.25 342.81,302.25 342.09,301.53 341.25,300.69 341.25,300.69 341.25,300.58 341.13,300.46 
		342.93,300.46 342.93,299.26 341.13,299.26 341.13,298.66 341.13,298.66 341.13,298.42 341.13,298.42 341.25,298.3 341.25,298.3 
		341.37,297.94 341.49,297.94 341.73,297.94 341.73,297.94 342.09,297.82 342.33,297.94 342.33,297.94 342.45,298.06 342.57,298.18 
		342.57,298.3 342.57,298.3 343.05,298.3 343.05,298.3 343.17,298.18 343.29,298.06 343.29,296.98 343.29,296.98 343.17,296.86 
		343.05,296.86 343.05,296.86 	"/>
	<polygon class="st0" points="344.85,299.62 345.81,298.66 345.81,298.66 345.09,297.94 344.37,297.46 343.53,298.3 343.53,298.3 
		344.25,298.9 344.85,299.62 344.85,299.62 	"/>
	<polygon class="st0" points="345.93,296.75 345.93,302.49 342.57,303.09 342.81,304.29 345.93,303.69 345.93,306.08 347.01,306.08 
		347.01,303.57 347.85,303.45 347.85,302.25 347.01,302.37 347.01,296.75 345.93,296.75 	"/>
	<polygon class="st0" points="344.49,302.13 345.33,301.05 345.33,301.05 344.61,300.46 343.89,299.86 343.05,300.69 343.05,300.69 
		343.77,301.41 344.49,302.13 344.49,302.13 	"/>
	<polygon class="st0" points="288.72,291 340.17,291 340.17,291 341.01,291 341.61,291.12 342.21,291.6 342.81,292.08 
		343.29,292.44 343.53,293.15 343.77,293.75 343.89,294.47 343.89,295.43 342.81,295.43 342.81,294.47 342.81,294.47 342.69,293.99 
		342.45,293.51 342.33,293.15 342.09,292.8 341.61,292.44 341.25,292.2 340.65,292.08 340.17,292.08 288.72,292.08 288.72,292.08 
		288.12,292.08 287.64,292.2 287.28,292.44 286.92,292.8 286.56,293.15 286.44,293.51 286.2,293.99 286.08,294.47 286.08,316.97 
		286.08,316.97 286.2,317.45 286.44,317.81 286.56,318.29 286.92,318.77 287.28,319.13 287.64,319.25 288.12,319.37 288.72,319.37 
		340.17,319.37 340.17,319.37 340.65,319.37 341.25,319.25 341.61,319.13 342.09,318.77 342.33,318.29 342.45,317.81 342.69,317.45 
		342.81,316.97 342.81,316.61 343.77,316.61 343.77,316.61 343.89,316.61 343.89,316.97 343.89,316.97 343.77,317.69 343.53,318.29 
		343.29,318.89 342.81,319.61 342.21,319.97 341.61,320.32 341.01,320.44 340.17,320.68 288.72,320.68 288.72,320.68 288,320.44 
		287.28,320.32 286.68,319.97 286.08,319.61 285.6,318.89 285.36,318.29 285.12,317.69 285,316.97 285,294.47 285,294.47 
		285.12,293.75 285.36,293.15 285.6,292.44 286.08,292.08 286.68,291.6 287.28,291.12 288,291 288.72,291 288.72,291 	"/>
	<polygon class="st0" points="331.42,314.82 331.42,306.92 334.54,306.92 334.54,305.48 331.42,305.48 331.42,299.02 334.18,299.02 
		334.18,297.22 326.62,297.22 326.62,299.02 329.02,299.02 329.02,305.48 326.02,305.48 326.02,306.92 329.02,306.92 329.02,314.82 
		331.42,314.82 	"/>
	<path class="st0" d="M318.7,314.82h2.4v-1.8h4.32v-1.8h-4.32v-1.2l0,0h3.72v-7.9l0,0l-0.36-0.96l-0.36-0.6h-1.2h-1.8v-1.56h4.32
		v-1.8h-4.32v-0.84h-2.4v0.84h-4.56v1.8h4.56v1.56h-2.4l0,0h-0.96l-0.6,0.6v0.6v8.26h3.96v1.2h-4.56v1.8h4.56V314.82L318.7,314.82z
		 M321.1,302.13h1.56v2.03h-1.56V302.13L321.1,302.13z M321.1,306.08h1.56v2.03h-1.56V306.08L321.1,306.08z M317.14,302.13h1.56
		v2.03h-1.56V302.13L317.14,302.13z M317.14,308.12v-2.03h1.56v2.03H317.14L317.14,308.12z"/>
	<polygon class="st0" points="308.51,308.47 304.91,308.47 304.91,308.47 304.19,308.47 303.59,308.71 303.59,309.43 303.59,310.27 
		303.59,310.27 303.95,311.23 304.55,312.42 306.11,313.62 307.55,314.58 308.75,314.82 308.75,312.66 308.75,312.66 307.91,312.42 
		306.95,311.47 306.35,310.63 306.11,310.03 308.51,310.03 308.51,308.47 	"/>
	<path class="st0" d="M293.04,305.48v-0.6h6.6v1.2h-5.76v1.44h5.76v6.1h-1.8v1.2l0,0h2.76l1.2-0.24l0.36-0.36l0.24-0.36l0.36-1.44
		v-4.91l0,0h6l0,0v-2.63h1.32v-1.56h-1.32v-1.2l0,0v-0.6l-0.6-0.6l-0.84-0.36h-4.56v-1.2h6.6v-1.8h-8.16v-1.2h-2.76v1.2h-6.36l0,0
		l-0.84,0.24l-0.6,0.6l-0.36,0.6v0.36l0,0v8.74l-0.36,2.75l-0.6,1.2l-0.6,0.96v1.8l0,0l1.56-0.6l0.96-0.96l0.6-1.2l0.6-1.44
		l0.6-2.75V305.48L293.04,305.48L293.04,305.48z M302.75,302.13h3.6v1.2h-3.6V302.13L302.75,302.13z M302.75,304.88h3.6v1.2h-3.6
		V304.88L302.75,304.88z M293.04,299.38h6.6v1.2h-5.76v1.56h5.76v1.2h-6.6V299.38L293.04,299.38z"/>
	<polygon class="st0" points="293.64,312.66 293.64,314.82 293.64,314.82 294.84,314.58 296.39,313.62 297.83,312.42 298.19,311.23 
		298.79,310.27 298.79,310.27 298.79,309.43 298.43,308.71 298.19,308.47 297.59,308.47 293.88,308.47 293.88,310.03 296.39,310.03 
		296.39,310.03 295.44,311.47 294.48,312.42 293.64,312.66 293.64,312.66 	"/>
	<polygon class="st0" points="365.12,306.68 365.12,306.68 364.52,306.44 363.8,306.32 359.96,306.08 359.96,306.08 358.53,305.84 
		358.17,305.72 357.93,305.6 357.93,305.6 357.57,305.12 357.57,304.53 357.57,304.53 357.81,303.57 357.93,303.21 358.05,303.09 
		359.01,302.85 360.32,302.85 360.32,302.85 361.64,302.85 362.36,303.09 362.48,303.21 362.72,303.57 362.84,304.53 362.84,304.76 
		367.16,304.76 367.28,304.05 367.28,304.05 367.16,302.97 367.04,302.01 366.68,301.41 366.2,300.69 366.2,300.69 365.96,300.34 
		365.48,299.98 365,299.74 364.4,299.62 362.72,299.26 360.32,299.26 360.32,299.26 358.05,299.26 356.49,299.38 355.29,299.74 
		354.33,300.34 354.33,300.34 353.73,300.93 353.25,301.89 353.01,302.97 353.01,304.29 353.01,304.29 353.01,305.36 353.13,306.32 
		353.25,307.16 353.61,307.76 353.85,308.36 354.57,308.59 355.17,309.07 355.89,309.19 355.89,309.19 357.81,309.55 361.04,309.91 
		361.04,309.91 362.12,309.91 362.72,310.15 362.96,310.27 363.2,310.63 363.2,311.35 363.2,311.35 362.96,312.19 362.72,312.78 
		362.72,312.78 362.36,312.9 362.12,313.14 360.56,313.14 360.56,313.14 358.53,313.14 358.05,312.9 357.81,312.78 357.81,312.78 
		357.57,312.66 357.45,312.31 357.33,311.35 357.33,311.11 352.77,311.11 352.77,311.11 353.01,312.42 353.01,313.38 353.25,314.22 
		353.61,314.94 353.61,314.94 353.85,315.42 354.33,315.9 354.93,316.14 355.77,316.37 357.81,316.61 360.56,316.73 360.56,316.73 
		362.72,316.61 364.4,316.49 365.6,316.02 366.56,315.42 366.56,315.42 367.04,314.82 367.52,313.86 367.64,312.66 367.76,311.11 
		367.76,311.11 367.64,309.43 367.52,308.59 367.16,308 366.8,307.52 366.44,307.28 365.96,306.92 365.12,306.68 365.12,306.68 	"/>
	<polygon class="st0" points="373.76,314.22 373.76,314.22 372.8,313.98 372.56,313.86 372.44,313.74 372.2,313.26 372.08,312.78 
		372.08,311.23 372.08,311.23 372.08,309.67 372.2,309.19 372.44,308.95 372.56,308.83 372.8,308.59 373.76,308.47 373.76,308.47 
		374.6,308.59 374.96,308.83 375.2,309.19 375.2,310.03 378.56,310.03 378.56,310.03 378.56,308.95 378.44,308 378.08,307.28 
		377.6,306.8 376.88,306.32 376.04,306.2 374.96,306.08 373.64,305.84 373.64,305.84 372.2,306.08 371,306.2 370.04,306.68 
		369.44,307.16 369.44,307.16 368.96,307.88 368.84,308.59 368.72,309.91 368.48,311.35 368.48,311.35 368.72,312.9 368.84,314.22 
		369.2,315.06 369.8,315.66 369.8,315.66 370.52,316.14 371.48,316.49 372.68,316.61 374.24,316.73 374.24,316.73 375.8,316.61 
		376.88,316.49 377.6,316.02 378.2,315.42 378.2,315.42 378.44,314.94 378.56,314.34 378.68,312.31 375.32,312.31 375.32,312.31 
		375.32,313.26 374.96,313.86 374.6,313.98 373.76,314.22 373.76,314.22 	"/>
	<polygon class="st0" points="385.51,305.84 385.51,305.84 384.67,306.08 383.95,306.32 383.35,306.92 382.87,307.76 382.87,307.76 
		382.99,306.08 379.52,306.08 379.52,316.61 382.99,316.61 382.99,310.51 382.99,310.51 382.99,309.67 382.99,309.43 382.99,309.43 
		383.11,309.07 383.47,308.83 383.83,308.59 384.19,308.59 384.19,308.59 384.67,308.59 385.03,308.95 385.15,309.43 385.15,310.27 
		385.15,310.27 385.15,310.63 388.27,310.63 388.27,310.63 388.27,308.47 388.15,307.76 388.15,307.76 387.79,306.92 387.19,306.32 
		386.59,306.08 385.51,305.84 385.51,305.84 	"/>
	<path class="st0" d="M394.15,305.84L394.15,305.84l-1.8,0.24l-1.08,0.12l-0.84,0.24l-0.48,0.48l0,0l-0.36,0.48l-0.12,0.48
		l-0.12,1.32h3.48l0,0l0.24-0.6l0.12-0.24l0.48-0.36h0.6l0,0l0.72,0.12l0.48,0.24l0.36,0.48v0.6v2.15l0,0l0,0l-0.48-0.84l-0.48-0.24
		l-0.96-0.36h-1.2l0,0h-0.96l-0.72,0.12l-0.6,0.36l-0.6,0.36l-0.36,0.36l-0.36,0.48l-0.12,0.84v0.72l0,0v0.96l0.12,0.6l0.24,0.6
		l0.48,0.48l0.36,0.36l0.72,0.24l0.72,0.12h1.08l0,0l1.2-0.12l0.96-0.24l0.36-0.24l0.24-0.24l0.36-0.96h0.12l-0.12,1.68h3.48v-6.94
		l0,0l-0.12-1.08l-0.36-1.08l0,0l-0.12-0.24l-0.48-0.48l-0.24-0.36l-0.6-0.12l-1.44-0.24L394.15,305.84L394.15,305.84L394.15,305.84
		z M394.27,314.46L394.27,314.46h-0.96l-0.6-0.12l-0.12-0.48l-0.24-0.48l0,0l0.24-0.6l0.12-0.36l0.6-0.12h0.84l0,0h0.72l0.6,0.12
		l0.36,0.36v0.48l0,0v0.6l-0.36,0.48l-0.48,0.12H394.27L394.27,314.46L394.27,314.46z"/>
	<polygon class="st0" points="405.54,314.22 405.54,314.22 405.18,314.22 404.82,313.98 404.82,313.5 404.7,312.78 404.7,308.47 
		408.9,308.47 408.9,306.08 404.7,306.08 404.7,303.93 401.35,303.93 401.35,306.08 400.15,306.08 400.15,308.47 401.35,308.47 
		401.35,313.5 401.35,313.5 401.47,314.82 401.58,315.54 401.58,315.54 402.3,316.02 402.9,316.49 403.74,316.61 405.06,316.73 
		405.06,316.73 406.62,316.61 407.82,316.49 408.3,316.14 408.54,315.9 409.02,315.06 409.02,315.06 409.14,314.34 409.38,312.78 
		409.38,312.31 406.62,312.31 406.62,312.31 406.38,313.26 406.38,313.86 406.14,314.22 405.54,314.22 405.54,314.22 	"/>
	<polygon class="st0" points="415.38,314.22 415.38,314.22 414.42,313.98 414.06,313.86 413.94,313.74 413.82,313.26 413.7,312.78 
		413.7,311.23 413.7,311.23 413.7,309.67 413.82,309.19 413.94,308.95 414.06,308.83 414.42,308.59 415.5,308.47 415.5,308.47 
		416.1,308.59 416.58,308.83 416.7,309.19 416.82,310.03 420.06,310.03 420.06,310.03 420.06,308.95 419.94,308 419.7,307.28 
		419.22,306.8 418.62,306.32 417.66,306.2 416.58,306.08 415.14,305.84 415.14,305.84 413.82,306.08 412.62,306.2 411.78,306.68 
		411.18,307.16 411.18,307.16 410.7,307.88 410.46,308.59 410.22,309.91 410.1,311.35 410.1,311.35 410.22,312.9 410.46,314.22 
		410.7,315.06 411.3,315.66 411.3,315.66 412.14,316.14 412.98,316.49 414.3,316.61 415.98,316.73 415.98,316.73 417.3,316.61 
		418.38,316.49 419.22,316.02 419.82,315.42 419.82,315.42 419.94,314.94 420.06,314.34 420.3,312.31 416.82,312.31 416.82,312.31 
		416.82,313.26 416.7,313.86 416.22,313.98 415.38,314.22 415.38,314.22 	"/>
	<polygon class="st0" points="428.69,304.29 428.69,304.29 427.37,304.53 426.89,304.64 426.41,305 425.93,305.24 425.69,305.72 
		424.97,306.92 424.97,306.92 424.97,299.38 421.02,299.38 421.02,316.61 424.97,316.61 424.97,309.67 424.97,309.67 425.21,308.59 
		425.33,308.36 425.45,308 425.81,307.76 426.29,307.52 427.13,307.52 427.13,307.52 428.09,307.52 428.21,307.88 428.57,308 
		428.57,308 428.69,308.59 428.69,309.43 428.69,316.61 432.77,316.61 432.77,308 432.77,308 432.53,307.16 432.41,306.44 
		432.17,305.84 431.69,305.24 431.21,305 430.37,304.64 429.65,304.53 428.69,304.29 428.69,304.29 	"/>
	<polygon class="st0" points="476.91,304.64 476.91,304.64 460.36,304.64 460.36,304.64 459.76,304.76 459.28,305.12 459.16,305.6 
		459.04,306.2 459.04,307.76 459.04,307.76 459.16,308.36 459.28,308.83 459.28,308.83 459.76,308.95 460.6,309.07 460.6,309.07 
		461.2,309.07 461.68,308.83 461.68,308.83 461.8,308.47 461.92,308 461.92,306.8 461.92,306.8 462.16,306.68 462.28,306.44 
		475.23,306.44 475.23,306.44 475.47,306.68 475.47,306.8 475.47,308 475.47,308 475.71,308.47 475.83,308.83 475.83,308.83 
		476.31,308.95 477.03,309.07 477.03,309.07 477.63,308.95 478.11,308.83 478.11,308.83 478.47,308.36 478.47,307.76 478.47,306.2 
		478.47,306.2 478.47,305.6 478.11,305 477.63,304.64 476.91,304.64 476.91,304.64 	"/>
	<polygon class="st0" points="477.39,310.75 473.79,310.75 473.79,310.75 474.63,309.91 474.63,309.91 474.87,309.19 475.11,308.83 
		475.11,308.83 474.87,308.12 474.63,307.76 474.03,307.4 473.19,307.28 463.6,307.28 463.6,307.28 463.24,307.4 462.88,307.52 
		462.76,307.88 462.52,308.36 462.52,308.36 462.76,308.83 462.88,309.07 463.24,309.43 463.6,309.43 471.51,309.43 471.51,309.43 
		471.63,309.55 471.87,309.55 471.87,309.55 471.63,309.91 471.39,310.15 470.31,310.75 470.31,310.75 470.07,310.51 470.07,310.51 
		469.95,310.27 469.71,310.03 468.99,310.03 468.99,310.03 468.39,310.03 467.91,310.15 467.91,310.15 467.67,310.51 467.55,310.75 
		460.24,310.75 460.24,310.75 459.64,310.75 459.28,311.11 459.28,311.11 459.04,311.35 459.04,311.83 459.04,311.83 459.04,312.42 
		459.28,312.78 459.28,312.78 459.64,313.14 460.24,313.14 468.15,313.14 468.15,313.14 468.27,313.98 468.27,313.98 468.15,314.46 
		467.79,314.58 467.79,314.58 467.19,314.46 466.59,314.34 466.59,314.34 465.51,314.22 465.51,314.22 464.92,314.34 464.56,314.46 
		464.56,314.46 464.44,314.82 464.32,315.42 464.32,315.42 464.44,315.66 464.56,316.14 464.92,316.37 465.39,316.49 465.39,316.49 
		466.71,316.73 468.75,316.97 468.75,316.97 469.71,316.73 470.43,316.37 470.43,316.37 470.79,315.9 471.03,315.42 471.15,314.94 
		471.15,314.34 471.15,314.34 471.03,313.14 477.39,313.14 477.39,313.14 477.87,313.14 478.35,312.78 478.35,312.78 478.47,312.31 
		478.47,311.83 478.47,311.83 478.47,311.35 478.35,311.11 478.35,311.11 477.87,310.75 477.39,310.75 477.39,310.75 	"/>
	<polygon class="st0" points="498.74,312.42 498.74,312.42 498.74,312.07 498.62,311.59 498.38,311.35 497.9,311.35 496.22,311.35 
		496.22,311.35 495.98,311.23 495.86,311.11 495.86,309.43 498.38,309.43 498.38,309.43 498.74,309.19 499.1,308.95 499.1,308.95 
		499.22,308.83 499.22,308.12 499.22,308.12 499.22,307.76 499.1,307.4 499.1,307.4 498.62,307.28 498.38,307.28 497.06,307.28 
		497.06,305.6 498.14,305.6 498.14,305.6 498.62,305.36 499.1,305.12 499.1,305.12 499.22,304.76 499.22,304.29 499.22,304.29 
		499.1,303.93 498.98,303.57 498.98,303.57 498.62,303.45 498.14,303.45 498.14,303.45 498.14,303.45 498.62,302.37 498.62,302.37 
		498.98,301.77 498.98,301.77 498.74,301.29 498.5,301.05 498.5,301.05 498.14,300.81 497.66,300.81 497.66,300.81 497.54,300.81 
		497.3,300.93 497.06,301.05 496.94,301.41 496.94,301.41 496.58,302.37 496.22,303.09 496.22,303.09 495.98,303.45 495.98,303.45 
		495.38,302.01 495.38,302.01 494.78,301.29 494.78,301.29 494.42,301.05 494.3,300.93 494.3,300.93 493.82,300.93 493.58,301.05 
		493.58,301.05 493.22,301.53 493.1,301.89 493.1,301.89 493.22,302.13 493.34,302.37 493.34,302.37 494.18,303.45 493.82,303.45 
		493.82,303.45 493.34,303.45 493.22,303.57 493.22,303.57 492.98,303.93 492.98,304.29 492.98,304.29 492.98,305 493.22,305.24 
		493.22,305.24 493.58,305.36 493.82,305.6 494.78,305.6 494.78,307.28 493.82,307.28 493.82,307.28 493.34,307.28 493.22,307.4 
		493.22,307.4 492.98,307.76 492.98,308.12 492.98,308.12 492.98,308.83 493.22,309.07 493.22,309.07 493.34,309.19 493.7,309.43 
		493.7,312.19 493.7,312.19 493.7,312.78 494.06,313.26 494.42,313.38 495.14,313.5 497.9,313.5 497.9,313.5 498.38,313.38 
		498.62,313.26 498.74,312.9 498.74,312.42 498.74,312.42 	"/>
	<polygon class="st0" points="488.42,308.12 488.42,308.12 488.42,308.47 488.66,308.83 488.9,308.95 489.26,308.95 489.26,308.95 
		489.5,308.95 489.86,308.83 489.98,308.47 490.1,308.12 490.1,308.12 489.98,306.08 489.5,304.17 489.5,304.17 489.26,303.69 
		488.66,303.57 488.66,303.57 488.3,303.69 487.94,303.93 487.82,304.05 487.82,304.29 487.82,304.29 487.82,304.76 487.82,304.76 
		487.94,305.6 487.94,305.6 486.5,305.72 486.5,305.72 487.58,304.29 488.3,302.97 489.02,301.77 489.5,300.69 489.5,300.69 
		489.74,299.86 489.74,299.86 489.5,299.38 489.26,299.14 489.26,299.14 488.78,298.9 488.3,298.9 488.3,298.9 487.94,298.9 
		487.7,299.14 487.34,299.74 487.34,299.74 486.86,300.81 486.26,301.89 486.26,301.89 485.43,300.93 485.43,300.93 486.26,299.86 
		486.86,298.66 486.86,298.66 487.1,298.3 487.1,298.06 487.1,298.06 487.1,297.58 486.62,297.22 486.62,297.22 486.26,296.98 
		485.79,296.98 485.79,296.98 485.43,297.1 484.95,297.58 484.95,297.58 484.47,298.66 483.99,299.74 483.99,299.74 483.51,299.62 
		483.27,299.38 483.27,299.38 482.79,299.62 482.43,299.74 482.43,299.74 482.31,300.22 482.19,300.46 482.19,300.46 482.31,300.93 
		482.43,301.29 482.43,301.29 482.79,301.53 482.79,301.53 485.07,303.69 485.07,303.69 485.07,303.93 485.07,303.93 483.75,305.84 
		483.75,305.84 483.39,305.84 483.39,305.84 482.91,305.84 482.67,306.2 482.67,306.2 482.43,306.44 482.31,306.92 482.31,306.92 
		482.43,307.52 482.67,307.88 482.67,307.88 483.03,308 483.75,308.12 483.75,308.12 485.07,308 485.07,315.54 485.07,315.54 
		485.07,316.02 485.43,316.49 485.43,316.49 485.67,316.61 486.26,316.73 486.26,316.73 486.74,316.61 487.22,316.49 487.22,316.49 
		487.34,316.02 487.58,315.54 487.58,307.52 487.58,307.52 488.3,307.4 488.3,307.4 488.42,308.12 488.42,308.12 	"/>
	<polygon class="st0" points="500.3,297.82 491.66,297.82 491.66,297.82 491.06,297.82 490.58,298.18 490.46,298.78 490.34,299.38 
		490.34,313.14 490.34,313.14 490.34,312.9 490.34,312.9 489.38,309.55 489.38,309.55 489.26,309.19 488.78,309.19 488.78,309.19 
		488.42,309.19 487.94,309.43 487.94,309.43 487.82,309.67 487.7,310.03 487.7,310.03 487.82,310.63 487.82,310.63 488.66,313.98 
		488.66,313.98 488.78,314.34 488.9,314.46 489.38,314.58 489.38,314.58 489.74,314.46 490.1,314.34 490.1,314.34 490.34,313.98 
		490.34,315.66 490.34,315.66 490.46,316.14 490.58,316.49 490.94,316.61 491.42,316.73 491.42,316.73 491.9,316.61 492.26,316.49 
		492.5,316.14 492.62,315.66 492.62,300.46 492.62,300.46 492.62,300.34 492.74,300.34 499.22,300.34 499.22,300.34 499.58,300.34 
		499.58,313.86 499.58,313.86 499.46,313.98 499.22,313.98 498.5,313.98 498.5,313.98 497.66,314.22 497.66,314.22 497.42,314.46 
		497.06,314.58 497.06,314.58 497.06,315.3 497.06,315.3 497.06,315.66 497.42,316.14 497.42,316.14 497.66,316.49 498.14,316.61 
		498.14,316.61 499.1,316.73 500.06,316.73 500.06,316.73 500.78,316.61 501.38,316.37 501.38,316.37 501.74,315.9 501.74,315.06 
		501.74,299.14 501.74,299.14 501.74,298.54 501.38,298.18 500.9,297.82 500.3,297.82 500.3,297.82 	"/>
	<polygon class="st0" points="484.47,309.55 484.47,309.55 483.99,309.43 483.75,309.19 483.75,309.19 483.39,309.19 483.03,309.43 
		482.91,309.67 482.91,310.03 482.91,310.03 482.43,312.07 482.19,313.5 482.19,313.5 481.95,314.34 481.95,314.34 482.19,314.82 
		482.31,315.06 482.31,315.06 482.79,315.3 483.27,315.3 483.27,315.3 483.75,315.06 483.87,314.82 483.87,314.82 484.11,313.5 
		484.47,311.83 484.47,311.83 484.71,310.15 484.71,310.15 484.59,309.67 484.47,309.55 484.47,309.55 	"/>
	<polygon class="st0" points="474.63,298.66 472.11,298.66 472.11,298.66 471.87,298.78 471.63,299.26 471.63,299.26 471.87,299.62 
		472.11,299.74 474.63,299.74 474.63,299.74 475.11,299.62 475.23,299.26 475.23,299.26 475.11,298.78 474.63,298.66 474.63,298.66 
			"/>
	<polygon class="st0" points="474.63,300.34 472.11,300.34 472.11,300.34 471.87,300.46 471.63,300.81 471.63,300.81 471.87,301.29 
		472.11,301.41 474.63,301.41 474.63,301.41 475.11,301.29 475.23,300.81 475.23,300.81 475.11,300.46 474.63,300.34 474.63,300.34 
			"/>
	<polygon class="st0" points="474.63,301.89 472.11,301.89 472.11,301.89 471.87,302.01 471.63,302.49 471.63,302.49 471.87,302.85 
		472.11,302.97 474.63,302.97 474.63,302.97 475.11,302.85 475.23,302.49 475.23,302.49 475.11,302.01 474.63,301.89 474.63,301.89 
			"/>
	<polygon class="st0" points="465.39,298.66 462.88,298.66 462.88,298.66 462.52,298.78 462.4,299.26 462.4,299.26 462.52,299.62 
		462.88,299.74 465.39,299.74 465.39,299.74 465.63,299.62 465.75,299.26 465.75,299.26 465.63,298.78 465.39,298.66 465.39,298.66 
			"/>
	<polygon class="st0" points="465.39,300.34 462.88,300.34 462.88,300.34 462.52,300.46 462.4,300.81 462.4,300.81 462.52,301.29 
		462.88,301.41 465.39,301.41 465.39,301.41 465.63,301.29 465.75,300.81 465.75,300.81 465.63,300.46 465.39,300.34 465.39,300.34 
			"/>
	<polygon class="st0" points="465.39,301.89 462.88,301.89 462.88,301.89 462.52,302.01 462.4,302.49 462.4,302.49 462.52,302.85 
		462.88,302.97 465.39,302.97 465.39,302.97 465.63,302.85 465.75,302.49 465.75,302.49 465.63,302.01 465.39,301.89 465.39,301.89 
			"/>
	<polygon class="st0" points="437.09,299.62 437.09,300.81 437.09,300.81 437.33,300.93 437.45,301.05 437.45,301.05 437.81,300.93 
		437.81,300.81 437.81,299.62 437.81,299.62 437.81,299.38 437.45,299.26 437.45,299.26 437.33,299.38 437.09,299.62 437.09,299.62 
			"/>
	<polygon class="st0" points="438.41,299.74 438.41,299.74 438.17,299.74 438.05,299.98 438.05,300.69 438.05,300.69 438.41,301.05 
		438.89,301.53 439.61,301.89 440.57,302.01 440.57,302.01 441.41,301.89 442.25,301.53 442.73,301.05 442.85,300.93 442.85,300.69 
		442.85,299.98 442.85,299.98 442.73,299.74 442.49,299.74 442.49,299.74 442.37,299.74 442.25,299.98 442.25,300.69 442.25,300.69 
		442.13,300.93 441.77,301.05 441.17,301.41 440.57,301.41 440.57,301.41 439.73,301.41 439.25,301.05 438.89,300.93 438.65,300.69 
		438.65,299.98 438.65,299.98 438.65,299.74 438.41,299.74 438.41,299.74 	"/>
	<path class="st0" d="M436.73,298.54l3.6,1.8l0,0h0.24l0,0h0.12l3.72-1.8l0,0l0,0l0.12-0.36v-0.12l0,0l-0.12-0.24v-0.12l-3.72-1.68
		l0,0h-0.36l-3.6,1.68l0,0l-0.24,0.12v0.24v0.12l0,0v0.36H436.73L436.73,298.54L436.73,298.54z M440.57,296.63l3.24,1.56l-3.24,1.56
		l-3.48-1.56L440.57,296.63L440.57,296.63z"/>
	<polygon class="st0" points="441.05,298.18 441.05,298.18 440.81,297.82 440.69,297.82 440.33,297.82 440.33,297.82 440.09,297.82 
		440.09,298.18 440.09,298.18 440.09,298.3 440.33,298.54 440.69,298.54 440.69,298.54 440.81,298.3 441.05,298.18 441.05,298.18 	
		"/>
	<path class="st0" d="M454.6,303.09L454.6,303.09h0.6l0.48-0.24l0,0l0.12-0.48v-0.6l0,0v-0.72l-0.36-0.36l0,0l-0.24-0.24l-0.6-0.12
		h-3.84l0,0l0.12-0.96l0,0l0.12-1.2l0,0l-0.12-0.48l-0.48-0.48l0,0l-0.48-0.12h-0.6l0,0h-0.36l-0.24,0.12l-0.36,0.6l0,0l-0.48,2.39
		l-0.6,1.68l0,0l-0.24,1.08l0,0l-0.24-0.12l0,0l-0.24-0.24l-0.48-0.12h-0.36l0,0l0.72-1.08l0.6-1.08l0,0l0.12-0.48l0.12-0.72l0,0
		l-0.12-0.48l-0.36-0.36l0,0l-0.36-0.24l-0.48-0.24l0,0l-0.36,0.24l-0.24,0.12l0,0l-1.08,2.03l-0.84,1.08l-0.96,1.2h-5.64l0,0
		l-0.6,0.12l-0.36,0.24l0,0l-0.12,0.24l-0.12,0.6l0,0l0.12,0.6l0.12,0.36l0,0l0.48,0.12l0.48,0.24h3.36l0,0l-1.8,1.2l-2.16,1.2l0,0
		l-0.36,0.12l-0.24,0.36v0.24l-0.24,0.36l0,0l0.24,0.6l0.12,0.36l0,0l0.24,0.24h0.48l0,0l0.84-0.12l1.08-0.48l0,0l1.8-1.08h2.28l0,0
		h0.36v0.12l0,0v0.36l-0.36,0.12l-0.72,0.84l0,0l-0.12-0.36l-0.36-0.12l-0.72-0.12l0,0h-0.48l-0.36,0.12l0,0l-0.24,0.24l-0.24,0.72
		l0,0l0.36,0.6l0,0l0.12,0.12l0,0l-2.88,0.36l0,0l-0.48,0.12l-0.36,0.12l0,0l-0.12,0.36l-0.12,0.48l0,0l0.12,0.6l0.12,0.24l0,0
		l0.36,0.24l0.6,0.12l0,0l1.68-0.12l2.16-0.24l0,0l-0.12,1.08l-0.12,0.36h-0.36l0,0l-1.2-0.12l0,0h-0.6l0,0l-0.36,0.12l-0.12,0.12
		l0,0l-0.12,0.48v0.48l0,0l0.12,0.6l0.48,0.48l0,0l0.84,0.12l1.08,0.12l0,0h0.84l0.6-0.12l0.48-0.24l0.48-0.48l0,0l0.24-0.36
		l0.24-0.6l0.12-0.6v-0.84l0,0l-0.12-0.84l0,0l3-0.6l0,0h0.48l0.36-0.36l0,0l0.12-0.36l0.12-0.36l0,0l-0.12-0.48l-0.12-0.36l0,0
		l-0.36-0.12l-0.48-0.12l0,0l-2.28,0.24l0,0l0.96-0.96l0.6-0.72l0,0l0.12-0.6l0.12-0.6l0,0l0,0l0,0l0,0l0.48,0.24l0.6,0.24l0,0h0.48
		l0,0l0.84,1.92l0.84,1.92l0,0l-1.44,1.68l-1.92,1.56l0,0l-0.24,0.24v0.48l0,0v0.48l0.24,0.48l0,0l0.48,0.12l0.6,0.12l0,0l0.84-0.12
		l0.72-0.24l0,0l1.2-1.08l1.08-1.32l0,0l1.32,1.32l1.2,1.2l0,0l0.48,0.12l0.6,0.12l0,0l0.6-0.12l0.6-0.24l0,0l0.12-0.48l0.24-0.36
		l0,0l-0.24-0.6l-0.24-0.36l0,0l-1.56-1.44l-1.44-1.56l0,0l0.84-1.32l0,0l0.6-1.8l0.48-1.68l0.24-1.8L454.6,303.09L454.6,303.09
		L454.6,303.09z M445.6,305.36L445.6,305.36l-0.12,0.48v0.48v0.12l0,0L445,306.2l-0.96-0.12h-1.32l0,0l0.6-0.72l0,0l0.48-0.36h2.16
		l0,0L445.6,305.36L445.6,305.36L445.6,305.36z M450.76,308.95L450.76,308.95l-0.72-1.44l-0.72-1.68l0,0l-0.12-0.24l-0.24-0.36l0,0
		l0.72-1.68l0,0l0.24-0.48h1.92l0,0v1.68l-0.36,1.56l-0.36,1.44L450.76,308.95L450.76,308.95L450.76,308.95z"/>
	<polygon class="st0" points="460.72,304.05 460.72,304.05 461.2,303.93 461.32,303.57 461.32,297.7 461.32,297.7 461.32,297.58 
		461.32,297.58 462.52,297.46 463.84,297.22 464.92,297.22 466.11,297.58 466.11,297.58 466.47,297.58 466.71,297.1 466.71,297.1 
		466.71,296.75 466.47,296.51 466.47,296.51 465.03,296.39 463.6,296.15 462.4,296.39 461.08,296.63 461.08,296.63 460.72,296.75 
		460.36,296.98 460.24,297.22 460.24,297.7 460.24,303.57 460.24,303.57 460.36,303.93 460.72,304.05 460.72,304.05 	"/>
	<polygon class="st0" points="471.39,297.58 471.39,297.58 472.59,297.22 473.79,297.22 475.11,297.46 476.19,297.58 476.19,297.58 
		476.31,297.7 476.31,303.57 476.31,303.57 476.43,303.93 476.79,304.05 476.79,304.05 477.03,303.93 477.27,303.57 477.27,297.7 
		477.27,297.7 477.27,297.22 477.03,296.98 476.79,296.75 476.43,296.63 476.43,296.63 475.23,296.39 473.79,296.15 472.47,296.39 
		471.15,296.51 471.15,296.51 470.91,296.75 470.79,297.1 470.79,297.1 471.03,297.58 471.39,297.58 471.39,297.58 	"/>
	<polygon class="st0" points="467.67,299.98 467.67,299.98 467.91,300.22 467.91,300.22 468.39,299.98 468.75,299.74 469.23,299.98 
		469.23,299.98 469.47,300.22 469.47,300.22 469.95,299.98 469.95,299.98 470.07,299.74 469.95,299.26 469.47,298.9 469.95,298.54 
		469.95,298.54 470.07,298.18 469.95,297.7 469.95,297.7 469.47,297.58 469.23,297.7 468.75,298.18 468.39,297.7 468.39,297.7 
		467.91,297.58 467.67,297.7 467.67,297.7 467.55,298.18 467.67,298.54 467.91,298.9 467.67,299.26 467.67,299.26 467.55,299.74 
		467.67,299.98 467.67,299.98 	"/>
	<polygon class="st0" points="467.67,303.09 467.67,303.09 467.91,303.21 467.91,303.21 468.39,303.09 468.75,302.85 469.23,303.09 
		469.23,303.09 469.47,303.21 469.47,303.21 469.95,303.09 469.95,303.09 470.07,302.85 469.95,302.37 469.47,302.01 469.95,301.53 
		469.95,301.53 470.07,301.29 469.95,300.81 469.95,300.81 469.47,300.69 469.23,300.81 468.75,301.29 468.39,300.81 468.39,300.81 
		467.91,300.69 467.67,300.81 467.67,300.81 467.55,301.29 467.67,301.53 467.91,302.01 467.67,302.37 467.67,302.37 467.55,302.85 
		467.67,303.09 467.67,303.09 	"/>
	<polygon class="st0" points="500.9,293.51 500.9,293.51 500.54,293.75 500.3,293.99 500.3,293.99 500.54,294.47 500.9,294.47 
		500.9,294.47 501.74,294.59 502.46,294.95 503.3,295.31 503.9,295.67 504.38,296.39 504.62,297.1 504.98,297.82 504.98,298.66 
		504.98,298.66 505.1,299.14 505.58,299.14 505.58,299.14 505.94,299.14 506.06,298.66 506.06,298.66 505.94,297.7 505.58,296.63 
		505.1,295.91 504.5,295.07 503.78,294.47 502.82,293.99 501.86,293.75 500.9,293.51 500.9,293.51 	"/>
	<polygon class="st0" points="500.9,295.43 500.9,295.43 500.54,295.55 500.3,295.91 500.3,295.91 500.54,296.39 500.9,296.39 
		500.9,296.39 501.38,296.51 501.74,296.63 502.46,297.1 502.94,297.7 503.06,298.18 503.06,298.66 503.06,298.66 503.3,299.14 
		503.78,299.14 503.78,299.14 504.02,299.14 504.14,298.66 504.14,298.66 504.02,298.06 503.9,297.46 503.54,296.75 503.3,296.39 
		502.7,296.03 502.22,295.67 501.62,295.43 500.9,295.43 500.9,295.43 	"/>
</g>
</svg>
